<svg xmlns="http://www.w3.org/2000/svg" viewBox="0 0 75.7 75.7"><defs><style>.cls-1{fill:#13b5ea;}.cls-2,.cls-3{fill:none;stroke:#fff;}.cls-2{stroke-miterlimit:10;}.cls-3{stroke-linejoin:round;}</style></defs><title>CAKE BAKING</title><g id="Layer_2" data-name="Layer 2"><g id="Layer_1-2" data-name="Layer 1"><rect class="cls-1" width="75.7" height="75.7"/><path class="cls-2" d="M62.21,42.39V59.93H14.15V42.39a5.89,5.89,0,0,0,1.65,2.23,6.16,6.16,0,0,0,10.07-3.71,6,6,0,0,0,2.07,3.71A6.16,6.16,0,0,0,38.1,39.94a6.17,6.17,0,0,0,6.16,6.16,6.17,6.17,0,0,0,6.15-6.16,6.16,6.16,0,0,0,11.72,2.64A1.08,1.08,0,0,0,62.21,42.39Z"/><path class="cls-2" d="M27.31,20.63H49a3.65,3.65,0,0,1,3.65,3.65v9.5a0,0,0,0,1,0,0h-29a0,0,0,0,1,0,0v-9.5A3.65,3.65,0,0,1,27.31,20.63Z"/><path class="cls-2" d="M62.73,39.94a5.88,5.88,0,0,1-.52,2.45,1.08,1.08,0,0,1-.08.19,6.16,6.16,0,0,1-11.72-2.64,6.16,6.16,0,0,1-12.31,0,6.16,6.16,0,0,1-10.16,4.68,6,6,0,0,1-2.07-3.71A6.14,6.14,0,0,1,15.8,44.62a5.89,5.89,0,0,1-1.65-2.23l-.09-.21a6,6,0,0,1,0-4.48,6.29,6.29,0,0,1,.68-1.28v0a6.17,6.17,0,0,1,5-2.62H56.57a6.15,6.15,0,0,1,5,2.62l0,0a5.77,5.77,0,0,1,.5.87A6,6,0,0,1,62.73,39.94Z"/><path class="cls-2" d="M23.54,25.31a5.39,5.39,0,0,0,.36,2,4.51,4.51,0,0,0,.93,1.55,3.07,3.07,0,0,0,4.76,0,5.18,5.18,0,0,0,1.3-3.55,5.26,5.26,0,0,0,1.28,3.55,3.08,3.08,0,0,0,4.77,0,5.24,5.24,0,0,0,1.29-3.55,5.24,5.24,0,0,0,1.29,3.55A3.23,3.23,0,0,0,41.9,30a3.27,3.27,0,0,0,2.39-1.13,5,5,0,0,0,1.23-2.81,5,5,0,0,0,1.25,2.81,3.07,3.07,0,0,0,4.76,0,4.52,4.52,0,0,0,1-1.85,5.69,5.69,0,0,0,0-3.4,3.81,3.81,0,0,0-3.41-3H27.21A3.71,3.71,0,0,0,23.9,23.3,5.48,5.48,0,0,0,23.54,25.31Z"/><path class="cls-2" d="M11.7,59.93H64a0,0,0,0,1,0,0v0a3.53,3.53,0,0,1-3.53,3.53H15.23a3.53,3.53,0,0,1-3.53-3.53v0a0,0,0,0,1,0,0Z"/><line class="cls-2" x1="38.18" y1="20.09" x2="38.18" y2="17.64"/><path class="cls-3" d="M39.58,16.24a1.4,1.4,0,1,1-2.79,0c0-.77,1.39-2.83,1.39-4C38.18,13.41,39.58,15.47,39.58,16.24Z"/></g></g></svg>