<svg xmlns="http://www.w3.org/2000/svg" viewBox="0 0 75 75"><defs><style>.cls-1{fill:#13b5ea;}.cls-2{fill:none;stroke:#fff;stroke-linecap:round;stroke-miterlimit:10;}</style></defs><title>CARGO</title><g id="Layer_2" data-name="Layer 2"><g id="Layer_1-2" data-name="Layer 1"><rect class="cls-1" width="75" height="75"/><path class="cls-2" d="M60.29,49.23h-19V23.8A2.81,2.81,0,0,1,44.07,21H54.29A2.81,2.81,0,0,1,57,23.07L63.1,45.55A2.91,2.91,0,0,1,60.29,49.23Z"/><path class="cls-2" d="M14.61,33.62H41.25a0,0,0,0,1,0,0V49.23a0,0,0,0,1,0,0H14.61a2.81,2.81,0,0,1-2.81-2.81v-10A2.81,2.81,0,0,1,14.61,33.62Z"/><path class="cls-2" d="M54.79,34.07H45V24.23h6A2.1,2.1,0,0,1,53,25.89Z"/><circle class="cls-2" cx="23.83" cy="53.61" r="4.38"/><circle class="cls-2" cx="52.07" cy="53.61" r="4.38"/><path class="cls-2" d="M19.36,22.7h7.16a0,0,0,0,1,0,0V33.62a0,0,0,0,1,0,0H17.9a0,0,0,0,1,0,0V24.16A1.46,1.46,0,0,1,19.36,22.7Z"/><path class="cls-2" d="M28.42,17h6.73a0,0,0,0,1,0,0V33.62a0,0,0,0,1,0,0H26.52a0,0,0,0,1,0,0V18.9A1.89,1.89,0,0,1,28.42,17Z"/><rect class="cls-2" x="35.15" y="19.81" width="4.39" height="13.81"/></g></g></svg>