<svg xmlns="http://www.w3.org/2000/svg" viewBox="0 0 75 75"><defs><style>.cls-1{fill:#13b5ea;}.cls-2{fill:none;stroke:#fff;stroke-miterlimit:10;}.cls-3{fill:#fff;}</style></defs><title>CLEANING</title><g id="Layer_2" data-name="Layer 2"><g id="Layer_1-2" data-name="Layer 1"><rect class="cls-1" width="75" height="75"/><path class="cls-2" d="M32.12,25.72h6.54a7,7,0,0,1,7,7V59A2.68,2.68,0,0,1,43,61.73H27.83A2.68,2.68,0,0,1,25.14,59V32.71A7,7,0,0,1,32.12,25.72Z"/><path class="cls-2" d="M32.82,19H38a1.65,1.65,0,0,1,1.65,1.65V25.8a0,0,0,0,1,0,0H31.17a0,0,0,0,1,0,0V20.68A1.65,1.65,0,0,1,32.82,19Z"/><path class="cls-2" d="M30.69,13.27H46.54a2.2,2.2,0,0,1,2.2,2.2v.7a0,0,0,0,1,0,0h-18a0,0,0,0,1,0,0v-2.9A0,0,0,0,1,30.69,13.27Z"/><path class="cls-2" d="M33.3,16.4h4.19a1,1,0,0,1,1,1V19a0,0,0,0,1,0,0H32.26a0,0,0,0,1,0,0V17.44a1,1,0,0,1,1-1Z"/><path class="cls-3" d="M47.57,22.05c-.1.86-.58,1.51-1.06,1.45s-.79-.8-.69-1.66,1.19-2.55,1.37-4.11C47.05,19,47.67,21.19,47.57,22.05Z"/><path class="cls-3" d="M48.62,28.73c0,.86-.4,1.56-.89,1.56s-.88-.7-.88-1.56.88-2.68.88-4.25C47.73,25.71,48.62,27.86,48.62,28.73Z"/><path class="cls-3" d="M49.82,22.76c.14.85-.14,1.61-.62,1.69s-1-.55-1.12-1.41.44-2.78.19-4.33C48.47,19.93,49.69,21.91,49.82,22.76Z"/><line class="cls-2" x1="45.97" y1="16.75" x2="48.74" y2="16.75"/></g></g></svg>