<svg xmlns="http://www.w3.org/2000/svg" viewBox="0 0 75.7 75.7"><defs><style>.cls-1{fill:#13b5ea;}.cls-2,.cls-3,.cls-4{fill:none;stroke:#fff;}.cls-2,.cls-4{stroke-miterlimit:10;}.cls-3,.cls-4{stroke-linecap:round;}.cls-3{stroke-linejoin:round;}</style></defs><title>DIGITAL MARKETING</title><g id="Layer_2" data-name="Layer 2"><g id="Layer_1-2" data-name="Layer 1"><rect class="cls-1" width="75.7" height="75.7"/><rect class="cls-2" x="19.48" y="19.35" width="36.75" height="25.22" rx="1.84"/><line class="cls-2" x1="19.48" y1="40.63" x2="56.22" y2="40.63"/><circle class="cls-2" cx="37.85" cy="42.54" r="0.61"/><line class="cls-3" x1="25.56" y1="56.35" x2="50.14" y2="56.35"/><rect class="cls-2" x="33.34" y="44.57" width="9.2" height="11.77"/><polygon class="cls-2" points="39.57 27.72 40.97 32.92 42.45 30.59 44.78 29.11 39.57 27.72"/><line class="cls-4" x1="42.91" y1="30.95" x2="44.74" y2="32.78"/><rect class="cls-4" x="24.51" y="23.37" width="10.14" height="14.93" rx="1.31"/><line class="cls-4" x1="28.83" y1="25.72" x2="32.4" y2="25.72"/><line class="cls-4" x1="28.83" y1="27.72" x2="32.4" y2="27.72"/><line class="cls-4" x1="26.11" y1="30.32" x2="32.87" y2="30.32"/><line class="cls-4" x1="26.11" y1="32.92" x2="32.87" y2="32.92"/><line class="cls-4" x1="26.11" y1="35.3" x2="32.87" y2="35.3"/></g></g></svg>