<svg xmlns="http://www.w3.org/2000/svg" viewBox="0 0 75.7 75.7"><defs><style>.cls-1{fill:#13b5ea;}.cls-2{fill:#fff;}.cls-3,.cls-4{fill:none;stroke:#fff;}.cls-3{stroke-linecap:round;stroke-linejoin:round;}.cls-4{stroke-miterlimit:10;}</style></defs><title>FURNITURE</title><g id="Layer_2" data-name="Layer 2"><g id="Layer_1-2" data-name="Layer 1"><rect class="cls-1" width="75.7" height="75.7"/><path class="cls-2" d="M62.66,19.91a.35.35,0,0,1,.34.35V23a.34.34,0,0,1-.34.34H13A.34.34,0,0,1,12.7,23V20.26a.35.35,0,0,1,.34-.35H62.66m0-1H13a1.34,1.34,0,0,0-1.34,1.35V23A1.34,1.34,0,0,0,13,24.29H62.66A1.34,1.34,0,0,0,64,23V20.26a1.34,1.34,0,0,0-1.34-1.35Z"/><line class="cls-3" x1="14.66" y1="24.29" x2="14.66" y2="56.35"/><rect class="cls-4" x="37.85" y="23.84" width="22.81" height="32.06"/><line class="cls-4" x1="37.85" y1="33.98" x2="60.67" y2="33.98"/><line class="cls-4" x1="37.85" y1="45.28" x2="60.67" y2="45.28"/><line class="cls-3" x1="14.66" y1="49.94" x2="37.85" y2="49.94"/><line class="cls-3" x1="47.8" y1="28.81" x2="49.26" y2="28.81"/><line class="cls-3" x1="47.8" y1="39.87" x2="49.26" y2="39.87"/><line class="cls-3" x1="47.8" y1="49.94" x2="49.26" y2="49.94"/></g></g></svg>