<svg xmlns="http://www.w3.org/2000/svg" viewBox="0 0 75 75"><defs><style>.cls-1{fill:#13b5ea;}.cls-2{fill:#fff;}.cls-3,.cls-4{fill:none;stroke:#fff;stroke-linecap:round;stroke-miterlimit:10;}.cls-4{fill-rule:evenodd;}</style></defs><title>GARDENING</title><g id="Layer_2" data-name="Layer 2"><g id="Layer_1-2" data-name="Layer 1"><rect class="cls-1" width="75" height="75"/><path class="cls-2" d="M54.19,31.4a.8.8,0,0,1,.8.8v3.6a.79.79,0,0,1-.8.79H20.81a.79.79,0,0,1-.8-.79V32.2a.8.8,0,0,1,.8-.8H54.19m0-1H20.81A1.81,1.81,0,0,0,19,32.2v3.6a1.8,1.8,0,0,0,1.8,1.79H54.19A1.8,1.8,0,0,0,56,35.8V32.2a1.81,1.81,0,0,0-1.8-1.8Z"/><path class="cls-2" d="M53.75,37.94a.08.08,0,0,1,.07,0,.22.22,0,0,1,0,.18L46.7,62c0,.07-.06.1-.09.1h-18s-.08,0-.1-.1L21.41,38.16a.18.18,0,0,1,0-.18.08.08,0,0,1,.07,0H53.75m0-1H21.51a1.15,1.15,0,0,0-1.06,1.5l7.06,23.8a1.12,1.12,0,0,0,1.06.81h18a1.11,1.11,0,0,0,1-.81l7.14-23.8a1.15,1.15,0,0,0-1-1.5Z"/><line class="cls-3" x1="37.5" y1="24.48" x2="37.5" y2="30.85"/><path class="cls-4" d="M32.8,16.69a7.11,7.11,0,0,1,2,6A7.14,7.14,0,0,1,27.4,14.6,7,7,0,0,1,32.8,16.69Z"/><path class="cls-4" d="M43.66,23.32A4.76,4.76,0,0,1,40,24.43a4.93,4.93,0,0,1,1.79-3.07,4.75,4.75,0,0,1,3.7-1.11A4.87,4.87,0,0,1,43.66,23.32Z"/><path class="cls-4" d="M42.42,17.27A6.22,6.22,0,0,1,37.88,21a6.15,6.15,0,0,1-.39-5.31A6.24,6.24,0,0,1,42,12,6.14,6.14,0,0,1,42.42,17.27Z"/></g></g></svg>