<svg xmlns="http://www.w3.org/2000/svg" viewBox="0 0 75.7 75.7"><defs><style>.cls-1{fill:#13b5ea;}.cls-2{fill:#fff;}</style></defs><title>HANDYMAN</title><g id="Layer_2" data-name="Layer 2"><g id="Layer_1-2" data-name="Layer 1"><rect class="cls-1" width="75.7" height="75.7"/><path class="cls-2" d="M33.59,38.91l1.3,1.3,1.44,1.45.45.46-.55.55-3.12,3.12a1.44,1.44,0,0,0-.43,1.49,5.39,5.39,0,0,1,.2,2A6.09,6.09,0,0,1,31.25,53a6.24,6.24,0,0,1-4.55,2.07h-.13l-.52,0a5.77,5.77,0,0,1-1.32-.28l.74-.74,3.05-3a2.68,2.68,0,0,0,.8-2.24,2.56,2.56,0,0,0-1.67-2.21,2.85,2.85,0,0,0-1-.2,2.5,2.5,0,0,0-1.71.68c-.54.5-1.06,1-1.56,1.53l-.52.53L22,50l-1,1a5.87,5.87,0,0,1-.14-3.48,6.07,6.07,0,0,1,1.71-2.91,6.19,6.19,0,0,1,3.35-1.72,6.29,6.29,0,0,1,1-.09,6.05,6.05,0,0,1,1.57.21,1.44,1.44,0,0,0,.4.06,1.37,1.37,0,0,0,1-.44l3.19-3.2.53-.52m0-1.3a.25.25,0,0,0-.13,0,5.4,5.4,0,0,0-.42.41l-3.88,3.87a.36.36,0,0,1-.29.15l-.14,0a6.68,6.68,0,0,0-1.83-.25,7.21,7.21,0,0,0-5.1,2.09,7.06,7.06,0,0,0-2,3.39,6.88,6.88,0,0,0,.38,4.6c.14.32.33.48.54.48a.78.78,0,0,0,.51-.27c.77-.76,1.53-1.54,2.3-2.31s1.35-1.37,2.05-2a1.48,1.48,0,0,1,1-.41,2,2,0,0,1,.66.13,1.57,1.57,0,0,1,1,1.38,1.71,1.71,0,0,1-.52,1.43l-4.17,4.17a1.14,1.14,0,0,0-.15.16.49.49,0,0,0,.18.81,6.57,6.57,0,0,0,2.29.63l.72.06A7.23,7.23,0,0,0,32,53.72a7.13,7.13,0,0,0,1.89-4.3A6.54,6.54,0,0,0,33.65,47a.47.47,0,0,1,.16-.52l4-4,.09-.09c.26-.26.25-.26,0-.52-.77-.79-1.54-1.57-2.32-2.35-.62-.63-1.24-1.25-1.87-1.86a.29.29,0,0,0-.14,0Z"/><path class="cls-2" d="M49.32,20.59h.08a4.82,4.82,0,0,1,1.62.33l-.64.64-.82.82L49,23c-.62.62-1.26,1.26-1.87,1.9a2.82,2.82,0,0,0-.67,1.22A2.6,2.6,0,0,0,47.74,29a3.22,3.22,0,0,0,1.39.34A2.54,2.54,0,0,0,51,28.54c.89-.9,1.78-1.8,2.68-2.69l.17-.16.21-.21.76-.75a5.66,5.66,0,0,1,.18,3.2,6.14,6.14,0,0,1-3.57,4.42,5.69,5.69,0,0,1-2.44.56,6.2,6.2,0,0,1-1.68-.24,1.65,1.65,0,0,0-.43-.06,1.39,1.39,0,0,0-1,.44l-3.28,3.27-3.2-3.19.46-.46c.93-.93,1.86-1.87,2.8-2.79A1.49,1.49,0,0,0,43,28.46c-.08-.4-.15-.81-.22-1.21l0-.2V27l0-.24c0-.18,0-.36,0-.54A5.78,5.78,0,0,1,44,23.26a6.43,6.43,0,0,1,2.62-2.13,6.57,6.57,0,0,1,2.74-.54m0-1a7.49,7.49,0,0,0-3.15.63,7.34,7.34,0,0,0-3,2.46,6.66,6.66,0,0,0-1.29,3.47l-.06.76h0c.1.58.19,1.17.31,1.74a.49.49,0,0,1-.14.51L38.18,32.9c-.21.22-.22.23,0,.45,1.38,1.38,2.77,2.76,4.15,4.15.12.11.18.17.24.17s.13-.06.24-.17l3.75-3.75a.4.4,0,0,1,.29-.14l.16,0a7,7,0,0,0,2,.28,6.56,6.56,0,0,0,2.86-.65A7.2,7.2,0,0,0,56,28.15a7,7,0,0,0-.47-4.43c-.11-.25-.27-.39-.45-.39a.62.62,0,0,0-.39.18c-.52.47-1,1-1.52,1.47-1,.95-1.92,1.9-2.86,2.86a1.55,1.55,0,0,1-1.13.49,2.23,2.23,0,0,1-1-.24,1.61,1.61,0,0,1-.77-1.78,1.9,1.9,0,0,1,.42-.76c.8-.84,1.63-1.65,2.45-2.47L52,21.36c.58-.58.51-.92-.24-1.23a6.44,6.44,0,0,0-2.35-.54Z"/><path class="cls-2" d="M34.09,21.1a8.71,8.71,0,0,0-1.52,1A4.74,4.74,0,0,0,30.74,25a3.14,3.14,0,0,0,.38,2.39.58.58,0,0,1,.07.11,1.43,1.43,0,0,1-.13.2,1.21,1.21,0,0,0,.09,1.71l2.65,2.64,1.09,1.09,3.19,3.18,2.85,2.85c-.39.38-.9.88-1.3,1.29l-.22-.21L39,39.81,37.13,38l-1.2-1.21-1.55-1.55-4.17-4.17a2.73,2.73,0,0,1-.27-.31c-.06-.06-.11-.13-.17-.2l-.68-.79-.77.71-.15.14-.16.16c-.31.26-.41.28-.45.28h0A2.54,2.54,0,0,0,27,31a2.5,2.5,0,0,0-1.36.43c-.33.21-.65.45-1,.72l-.86.71-.37.31-.82.68.73.78.13.12.1.11,0,.07.08.08c0,.13-.05.28-.22.38a.21.21,0,0,1-.12,0,.38.38,0,0,1-.19-.11l-.22-.23c-.64-.63-2.14-2.09-2.42-2.39s-.14-.29,0-.43a.43.43,0,0,1,.29-.12.13.13,0,0,1,.08,0c.1.1.2.2.33.31l.13.13.88.81.65-1,.17-.26.44-.7a1.68,1.68,0,0,0,.26-.69c0-.16,0-.32,0-.48v-.11c0-.1.07-.2.1-.31a5.42,5.42,0,0,1,.27-.7,12.86,12.86,0,0,1,2.7-3.43,25.4,25.4,0,0,1,3.32-2.63,25.25,25.25,0,0,1,2.35-1.33,10.47,10.47,0,0,1,1.64-.64m2.16-1.3a9.65,9.65,0,0,0-4.24,1,24.56,24.56,0,0,0-2.44,1.38A26.7,26.7,0,0,0,26.12,25a13.92,13.92,0,0,0-2.92,3.7,8.73,8.73,0,0,0-.47,1.27.32.32,0,0,0,0,.14c0,.19,0,.38,0,.56a.64.64,0,0,1-.11.27c-.19.32-.39.62-.61.95l-.41-.38a1.05,1.05,0,0,0-.81-.34,1.4,1.4,0,0,0-1,.45,1.23,1.23,0,0,0,0,1.79c.33.35,2.11,2.1,2.66,2.64a1.27,1.27,0,0,0,.89.4,1.21,1.21,0,0,0,.64-.19,1.33,1.33,0,0,0,.64-1.56,1.63,1.63,0,0,0-.27-.43,4.26,4.26,0,0,0-.3-.32c.41-.35.8-.68,1.21-1a8.56,8.56,0,0,1,.92-.66A1.47,1.47,0,0,1,27,32a1.4,1.4,0,0,1,.34,0,1.26,1.26,0,0,0,.27,0,1.81,1.81,0,0,0,1.09-.53l.35-.33c.17.2.32.4.49.57,1.9,1.91,3.81,3.81,5.72,5.72l3,3c.4.4.8.78,1.19,1.18a.23.23,0,0,0,.4,0c.51-.54,2-2,2.26-2.24s.24-.27,0-.49l-6.53-6.52L31.86,28.7c-.14-.14-.15-.22,0-.38a1.09,1.09,0,0,0,.1-1.5,2.15,2.15,0,0,1-.21-1.65,3.81,3.81,0,0,1,1.47-2.32A10,10,0,0,1,37.59,21l.77-.17a.58.58,0,0,0,.23-.09c.09-.09.21-.19.23-.29s-.15-.2-.25-.24a6,6,0,0,0-1.87-.42Z"/><path class="cls-2" d="M43.45,40.9a.34.34,0,0,1,.18.13l.25.23.06,0,1.59,1.43L48,44.94l3.11,2.79,1,.9.88.79,2.26,2,.09.09a.23.23,0,0,1-.07.08L53.87,53l-1.72,1.72-.15.13a1,1,0,0,1-.15-.15l-1.79-2-.31-.34-1-1.17-1.34-1.49-1.64-1.82-1.55-1.74-.86-1c-.64-.71-1.28-1.42-1.9-2.13a.88.88,0,0,1-.07-.14v0c0-.08.17-.25.32-.39l.13-.12.39-.39c.28-.28.56-.55.82-.83a.83.83,0,0,1,.44-.29m0-1a1.68,1.68,0,0,0-1.16.6c-.39.41-.8.8-1.2,1.2a1.86,1.86,0,0,0-.74,1.13.68.68,0,0,1,0,.14l0,0a2.78,2.78,0,0,0,.37.73c.91,1.05,1.85,2.07,2.78,3.11s2.12,2.38,3.19,3.56c.79.89,1.59,1.77,2.39,2.66s1.4,1.55,2.09,2.33a1.05,1.05,0,0,0,1.76,0c1-1,2.09-2.08,3.12-3.12a1,1,0,0,0-.06-1.63c-1.06-.93-2.1-1.87-3.15-2.81L48.66,44.2l-4-3.64-.25-.21a1.19,1.19,0,0,0-.91-.45Z"/></g></g></svg>