<svg xmlns="http://www.w3.org/2000/svg" viewBox="0 0 75 75"><defs><style>.cls-1{fill:#13b5ea;}.cls-2{fill:none;stroke:#fff;stroke-miterlimit:10;}</style></defs><title>PHOTOGRAPHY</title><g id="Layer_2" data-name="Layer 2"><g id="Layer_1-2" data-name="Layer 1"><rect class="cls-1" width="75" height="75"/><path class="cls-2" d="M63.65,32.53V53.71a2.14,2.14,0,0,1-2.14,2.14h-48a2.14,2.14,0,0,1-2.14-2.14V32.53a2.14,2.14,0,0,1,2.14-2.14H23.2a2.14,2.14,0,0,0,2.14-2.14v-7a2.14,2.14,0,0,1,2.14-2.14h20a2.14,2.14,0,0,1,2.14,2.14v7a2.14,2.14,0,0,0,2.14,2.14h9.71A2.14,2.14,0,0,1,63.65,32.53Z"/><circle class="cls-2" cx="37.5" cy="41.33" r="11.82"/><circle class="cls-2" cx="37.5" cy="41.33" r="6.42"/><circle class="cls-2" cx="29.4" cy="24.11" r="1.24"/></g></g></svg>